<svg xmlns="http://www.w3.org/2000/svg" viewBox="0 0 700 480" font-family="Helvetica,Arial,sans-serif" font-size="16.1" fill="black">
<rect width="700" height="480" fill="white"/>
<g transform="translate(350.0 240.0) scale(1.000) translate(-350.0 -238.5)">
<g><line x1="88.5" y1="60.0" x2="93.3" y2="60.0" stroke="black"/><line x1="88.5" y1="180.0" x2="93.3" y2="180.0" stroke="black"/><line x1="93.3" y1="60.0" x2="93.3" y2="180.0" stroke="black"/><line x1="93.3" y1="120.0" x2="103.0" y2="120.0" stroke="black"/><line x1="103.0" y1="112.8" x2="103.0" y2="127.2" stroke="black"/><line x1="88.5" y1="300.0" x2="93.3" y2="300.0" stroke="black"/><line x1="88.5" y1="420.0" x2="93.3" y2="420.0" stroke="black"/><line x1="93.3" y1="300.0" x2="93.3" y2="420.0" stroke="black"/><line x1="93.3" y1="360.0" x2="103.0" y2="360.0" stroke="black"/><line x1="103.0" y1="352.8" x2="103.0" y2="367.2" stroke="black"/><line x1="611.5" y1="60.0" x2="606.7" y2="60.0" stroke="black"/><line x1="611.5" y1="180.0" x2="606.7" y2="180.0" stroke="black"/><line x1="606.7" y1="60.0" x2="606.7" y2="180.0" stroke="black"/><line x1="606.7" y1="120.0" x2="597.0" y2="120.0" stroke="black"/><line x1="597.0" y1="112.8" x2="597.0" y2="127.2" stroke="black"/><line x1="611.5" y1="300.0" x2="606.7" y2="300.0" stroke="black"/><line x1="611.5" y1="420.0" x2="606.7" y2="420.0" stroke="black"/><line x1="606.7" y1="300.0" x2="606.7" y2="420.0" stroke="black"/><line x1="606.7" y1="360.0" x2="597.0" y2="360.0" stroke="black"/><line x1="597.0" y1="352.8" x2="597.0" y2="367.2" stroke="black"/><line x1="189.1" y1="120.0" x2="193.9" y2="120.0" stroke="black"/><line x1="189.1" y1="360.0" x2="193.9" y2="360.0" stroke="black"/><line x1="193.9" y1="120.0" x2="193.9" y2="360.0" stroke="black"/><line x1="193.9" y1="240.0" x2="203.5" y2="240.0" stroke="black"/><line x1="203.5" y1="232.8" x2="203.5" y2="247.2" stroke="black"/><line x1="510.9" y1="120.0" x2="506.1" y2="120.0" stroke="black"/><line x1="510.9" y1="360.0" x2="506.1" y2="360.0" stroke="black"/><line x1="506.1" y1="120.0" x2="506.1" y2="360.0" stroke="black"/><line x1="506.1" y1="240.0" x2="496.5" y2="240.0" stroke="black"/><line x1="496.5" y1="232.8" x2="496.5" y2="247.2" stroke="black"/><line x1="289.6" y1="240.0" x2="315.4" y2="240.0" stroke="black"/><line x1="315.4" y1="232.8" x2="315.4" y2="247.2" stroke="black"/><line x1="410.4" y1="240.0" x2="384.6" y2="240.0" stroke="black"/><line x1="384.6" y1="232.8" x2="384.6" y2="247.2" stroke="black"/></g>
<g><polyline points="302.5,240.0 302.5,95.0 315.4,95.0" fill="none" stroke="black" stroke-dasharray="3 2"/><line x1="315.4" y1="87.8" x2="315.4" y2="102.3" stroke="black" stroke-dasharray="3 2"/><polyline points="397.5,240.0 397.5,95.0 384.6,95.0" fill="none" stroke="black" stroke-dasharray="3 2"/><line x1="384.6" y1="87.8" x2="384.6" y2="102.3" stroke="black" stroke-dasharray="3 2"/></g>
<image href="https://flagcdn.com/fr.svg" x="8.0" y="19.3" width="57.9" height="37.7" preserveAspectRatio="none"/><rect x="8.0" y="19.3" width="57.9" height="37.7" fill="none" stroke="black" stroke-width="0.5"/><text x="70.0" y="41.0" text-anchor="start" font-weight="700" font-size="8.0" textLength="15.3" lengthAdjust="spacingAndGlyphs">FRA 1</text><image href="https://flagcdn.com/ma.svg" x="8.0" y="63.0" width="57.9" height="37.7" preserveAspectRatio="none"/><rect x="8.0" y="63.0" width="57.9" height="37.7" fill="none" stroke="black" stroke-width="0.5"/><text x="70.0" y="84.7" text-anchor="start" font-weight="700" font-size="8.0" textLength="15.3" lengthAdjust="spacingAndGlyphs">MAR 3</text>
<image href="https://flagcdn.com/ar.svg" x="8.0" y="139.3" width="57.9" height="37.7" preserveAspectRatio="none"/><rect x="8.0" y="139.3" width="57.9" height="37.7" fill="none" stroke="black" stroke-width="0.5"/><text x="70.0" y="161.0" text-anchor="start" font-weight="700" font-size="8.0" textLength="15.3" lengthAdjust="spacingAndGlyphs">ARG 3</text><image href="https://flagcdn.com/gb-eng.svg" x="8.0" y="183.0" width="57.9" height="37.7" preserveAspectRatio="none"/><rect x="8.0" y="183.0" width="57.9" height="37.7" fill="none" stroke="black" stroke-width="0.5"/><text x="70.0" y="204.7" text-anchor="start" font-weight="700" font-size="8.0" textLength="15.3" lengthAdjust="spacingAndGlyphs">ENG 2</text>
<image href="https://flagcdn.com/nl.svg" x="634.1" y="19.3" width="57.9" height="37.7" preserveAspectRatio="none"/><rect x="634.1" y="19.3" width="57.9" height="37.7" fill="none" stroke="black" stroke-width="0.5"/><text x="630.0" y="41.0" text-anchor="end" font-weight="700" font-size="8.0" textLength="15.3" lengthAdjust="spacingAndGlyphs">NED 3</text><image href="https://flagcdn.com/jp.svg" x="634.1" y="63.0" width="57.9" height="37.7" preserveAspectRatio="none"/><rect x="634.1" y="63.0" width="57.9" height="37.7" fill="none" stroke="black" stroke-width="0.5"/><text x="630.0" y="84.7" text-anchor="end" font-weight="700" font-size="8.0" textLength="15.3" lengthAdjust="spacingAndGlyphs">JPN 1</text>
<image href="https://flagcdn.com/us.svg" x="634.1" y="139.3" width="57.9" height="37.7" preserveAspectRatio="none"/><rect x="634.1" y="139.3" width="57.9" height="37.7" fill="none" stroke="black" stroke-width="0.5"/><text x="630.0" y="161.0" text-anchor="end" font-weight="700" font-size="8.0" textLength="15.3" lengthAdjust="spacingAndGlyphs">USA 1</text><image href="https://flagcdn.com/uy.svg" x="634.1" y="183.0" width="57.9" height="37.7" preserveAspectRatio="none"/><rect x="634.1" y="183.0" width="57.9" height="37.7" fill="none" stroke="black" stroke-width="0.5"/><text x="630.0" y="204.7" text-anchor="end" font-weight="700" font-size="8.0" textLength="15.3" lengthAdjust="spacingAndGlyphs">URU 0</text>
<image href="https://flagcdn.com/ec.svg" x="8.0" y="259.3" width="57.9" height="37.7" preserveAspectRatio="none"/><rect x="8.0" y="259.3" width="57.9" height="37.7" fill="none" stroke="black" stroke-width="0.5"/><text x="70.0" y="281.0" text-anchor="start" font-weight="700" font-size="8.0" textLength="15.3" lengthAdjust="spacingAndGlyphs">ECU 1</text><image href="https://flagcdn.com/se.svg" x="8.0" y="303.0" width="57.9" height="37.7" preserveAspectRatio="none"/><rect x="8.0" y="303.0" width="57.9" height="37.7" fill="none" stroke="black" stroke-width="0.5"/><text x="70.0" y="324.7" text-anchor="start" font-weight="700" font-size="8.0" textLength="15.3" lengthAdjust="spacingAndGlyphs">SWE 3</text>
<image href="https://flagcdn.com/sn.svg" x="8.0" y="379.3" width="57.9" height="37.7" preserveAspectRatio="none"/><rect x="8.0" y="379.3" width="57.9" height="37.7" fill="none" stroke="black" stroke-width="0.5"/><text x="70.0" y="401.0" text-anchor="start" font-weight="700" font-size="8.0" textLength="15.3" lengthAdjust="spacingAndGlyphs">SEN 3</text><image href="https://flagcdn.com/au.svg" x="8.0" y="423.0" width="57.9" height="37.7" preserveAspectRatio="none"/><rect x="8.0" y="423.0" width="57.9" height="37.7" fill="none" stroke="black" stroke-width="0.5"/><text x="70.0" y="444.7" text-anchor="start" font-weight="700" font-size="8.0" textLength="15.3" lengthAdjust="spacingAndGlyphs">AUS 2</text>
<image href="https://flagcdn.com/gh.svg" x="634.1" y="259.3" width="57.9" height="37.7" preserveAspectRatio="none"/><rect x="634.1" y="259.3" width="57.9" height="37.7" fill="none" stroke="black" stroke-width="0.5"/><text x="630.0" y="281.0" text-anchor="end" font-weight="700" font-size="8.0" textLength="15.3" lengthAdjust="spacingAndGlyphs">GHA 3</text><image href="https://flagcdn.com/tn.svg" x="634.1" y="303.0" width="57.9" height="37.7" preserveAspectRatio="none"/><rect x="634.1" y="303.0" width="57.9" height="37.7" fill="none" stroke="black" stroke-width="0.5"/><text x="630.0" y="324.7" text-anchor="end" font-weight="700" font-size="8.0" textLength="15.3" lengthAdjust="spacingAndGlyphs">TUN 1</text>
<image href="https://flagcdn.com/eg.svg" x="634.1" y="379.3" width="57.9" height="37.7" preserveAspectRatio="none"/><rect x="634.1" y="379.3" width="57.9" height="37.7" fill="none" stroke="black" stroke-width="0.5"/><text x="630.0" y="401.0" text-anchor="end" font-weight="700" font-size="8.0" textLength="15.3" lengthAdjust="spacingAndGlyphs">EGY 1</text><image href="https://flagcdn.com/qa.svg" x="634.1" y="423.0" width="57.9" height="37.7" preserveAspectRatio="none"/><rect x="634.1" y="423.0" width="57.9" height="37.7" fill="none" stroke="black" stroke-width="0.5"/><text x="630.0" y="444.7" text-anchor="end" font-weight="700" font-size="8.0" textLength="15.3" lengthAdjust="spacingAndGlyphs">QAT 0</text>
<image href="https://flagcdn.com/ma.svg" x="108.6" y="79.3" width="57.9" height="37.7" preserveAspectRatio="none"/><rect x="108.6" y="79.3" width="57.9" height="37.7" fill="none" stroke="black" stroke-width="0.5"/><text x="170.6" y="101.0" text-anchor="start" font-weight="700" font-size="8.0" textLength="15.3" lengthAdjust="spacingAndGlyphs">MAR 1</text><image href="https://flagcdn.com/ar.svg" x="108.6" y="123.0" width="57.9" height="37.7" preserveAspectRatio="none"/><rect x="108.6" y="123.0" width="57.9" height="37.7" fill="none" stroke="black" stroke-width="0.5"/><text x="170.6" y="144.7" text-anchor="start" font-weight="700" font-size="8.0" textLength="15.3" lengthAdjust="spacingAndGlyphs">ARG 3</text><text x="137.6" y="72.9" text-anchor="middle" font-size="10.0" font-weight="700">QUARTER</text>
<image href="https://flagcdn.com/se.svg" x="108.6" y="319.3" width="57.9" height="37.7" preserveAspectRatio="none"/><rect x="108.6" y="319.3" width="57.9" height="37.7" fill="none" stroke="black" stroke-width="0.5"/><text x="170.6" y="341.0" text-anchor="start" font-weight="700" font-size="8.0" textLength="15.3" lengthAdjust="spacingAndGlyphs">SWE 3</text><image href="https://flagcdn.com/sn.svg" x="108.6" y="363.0" width="57.9" height="37.7" preserveAspectRatio="none"/><rect x="108.6" y="363.0" width="57.9" height="37.7" fill="none" stroke="black" stroke-width="0.5"/><text x="170.6" y="384.7" text-anchor="start" font-weight="700" font-size="8.0" textLength="15.3" lengthAdjust="spacingAndGlyphs">SEN 2</text><text x="137.6" y="312.9" text-anchor="middle" font-size="10.0" font-weight="700">QUARTER</text>
<image href="https://flagcdn.com/nl.svg" x="533.5" y="79.3" width="57.9" height="37.7" preserveAspectRatio="none"/><rect x="533.5" y="79.3" width="57.9" height="37.7" fill="none" stroke="black" stroke-width="0.5"/><text x="529.4" y="101.0" text-anchor="end" font-weight="700" font-size="8.0" textLength="15.3" lengthAdjust="spacingAndGlyphs">NED 3</text><image href="https://flagcdn.com/us.svg" x="533.5" y="123.0" width="57.9" height="37.7" preserveAspectRatio="none"/><rect x="533.5" y="123.0" width="57.9" height="37.7" fill="none" stroke="black" stroke-width="0.5"/><text x="529.4" y="144.7" text-anchor="end" font-weight="700" font-size="8.0" textLength="15.3" lengthAdjust="spacingAndGlyphs">USA 1</text><text x="562.4" y="72.9" text-anchor="middle" font-size="10.0" font-weight="700">QUARTER</text>
<image href="https://flagcdn.com/gh.svg" x="533.5" y="319.3" width="57.9" height="37.7" preserveAspectRatio="none"/><rect x="533.5" y="319.3" width="57.9" height="37.7" fill="none" stroke="black" stroke-width="0.5"/><text x="529.4" y="341.0" text-anchor="end" font-weight="700" font-size="8.0" textLength="15.3" lengthAdjust="spacingAndGlyphs">GHA 1</text><image href="https://flagcdn.com/eg.svg" x="533.5" y="363.0" width="57.9" height="37.7" preserveAspectRatio="none"/><rect x="533.5" y="363.0" width="57.9" height="37.7" fill="none" stroke="black" stroke-width="0.5"/><text x="529.4" y="384.7" text-anchor="end" font-weight="700" font-size="8.0" textLength="15.3" lengthAdjust="spacingAndGlyphs">EGY 0</text><text x="562.4" y="312.9" text-anchor="middle" font-size="10.0" font-weight="700">QUARTER</text>
<image href="https://flagcdn.com/ar.svg" x="209.2" y="199.3" width="57.9" height="37.7" preserveAspectRatio="none"/><rect x="209.2" y="199.3" width="57.9" height="37.7" fill="none" stroke="black" stroke-width="0.5"/><text x="271.1" y="221.0" text-anchor="start" font-weight="700" font-size="8.0" textLength="15.3" lengthAdjust="spacingAndGlyphs">ARG 1</text><image href="https://flagcdn.com/se.svg" x="209.2" y="243.0" width="57.9" height="37.7" preserveAspectRatio="none"/><rect x="209.2" y="243.0" width="57.9" height="37.7" fill="none" stroke="black" stroke-width="0.5"/><text x="271.1" y="264.7" text-anchor="start" font-weight="700" font-size="8.0" textLength="15.3" lengthAdjust="spacingAndGlyphs">SWE 3</text><text x="238.1" y="192.9" text-anchor="middle" font-size="10.0" font-weight="700">SEMI</text>
<image href="https://flagcdn.com/nl.svg" x="432.9" y="199.3" width="57.9" height="37.7" preserveAspectRatio="none"/><rect x="432.9" y="199.3" width="57.9" height="37.7" fill="none" stroke="black" stroke-width="0.5"/><text x="428.9" y="221.0" text-anchor="end" font-weight="700" font-size="8.0" textLength="15.3" lengthAdjust="spacingAndGlyphs">NED 3</text><image href="https://flagcdn.com/gh.svg" x="432.9" y="243.0" width="57.9" height="37.7" preserveAspectRatio="none"/><rect x="432.9" y="243.0" width="57.9" height="37.7" fill="none" stroke="black" stroke-width="0.5"/><text x="428.9" y="264.7" text-anchor="end" font-weight="700" font-size="8.0" textLength="15.3" lengthAdjust="spacingAndGlyphs">GHA 2</text><text x="461.9" y="192.9" text-anchor="middle" font-size="10.0" font-weight="700">SEMI</text>
<text x="350" y="307.6" text-anchor="middle" font-size="10.0" font-weight="700">FINAL</text><text x="350" y="196.4" text-anchor="middle" font-weight="700">SWE 1</text><image href="https://flagcdn.com/se.svg" x="321.0" y="199.3" width="57.9" height="37.7" preserveAspectRatio="none"/><rect x="321.0" y="199.3" width="57.9" height="37.7" fill="none" stroke="black" stroke-width="0.5"/><image href="https://flagcdn.com/nl.svg" x="321.0" y="243.0" width="57.9" height="37.7" preserveAspectRatio="none"/><rect x="321.0" y="243.0" width="57.9" height="37.7" fill="none" stroke="black" stroke-width="0.5"/><text x="350" y="295.6" text-anchor="middle" font-weight="700">NED 0</text>
<text x="350" y="37.4" text-anchor="middle" font-size="10.0" font-weight="700">3RD PLACE</text><text x="350" y="51.5" text-anchor="middle" font-weight="700">ARG 3</text><image href="https://flagcdn.com/ar.svg" x="321.0" y="54.4" width="57.9" height="37.7" preserveAspectRatio="none"/><rect x="321.0" y="54.4" width="57.9" height="37.7" fill="none" stroke="black" stroke-width="0.5"/><image href="https://flagcdn.com/gh.svg" x="321.0" y="98.0" width="57.9" height="37.7" preserveAspectRatio="none"/><rect x="321.0" y="98.0" width="57.9" height="37.7" fill="none" stroke="black" stroke-width="0.5"/><text x="350" y="150.7" text-anchor="middle" font-weight="700">GHA 1</text>
</g>
</svg>