<svg xmlns="http://www.w3.org/2000/svg" viewBox="0 0 700 480" font-family="Helvetica,Arial,sans-serif" font-size="22.8" fill="black">
<rect width="700" height="480" fill="white"/>
<g transform="translate(350.0 240.0) scale(1.000) translate(-350.0 -167.1)">
<g><line x1="90.1" y1="120.0" x2="96.9" y2="120.0" stroke="black"/><line x1="90.1" y1="360.0" x2="96.9" y2="360.0" stroke="black"/><line x1="96.9" y1="120.0" x2="96.9" y2="360.0" stroke="black"/><line x1="96.9" y1="240.0" x2="142.5" y2="240.0" stroke="black"/><line x1="142.5" y1="231.3" x2="142.5" y2="248.7" stroke="black"/><line x1="609.9" y1="120.0" x2="603.1" y2="120.0" stroke="black"/><line x1="609.9" y1="360.0" x2="603.1" y2="360.0" stroke="black"/><line x1="603.1" y1="120.0" x2="603.1" y2="360.0" stroke="black"/><line x1="603.1" y1="240.0" x2="557.5" y2="240.0" stroke="black"/><line x1="557.5" y1="231.3" x2="557.5" y2="248.7" stroke="black"/><line x1="247.4" y1="240.0" x2="301.0" y2="240.0" stroke="black"/><line x1="301.0" y1="229.7" x2="301.0" y2="250.3" stroke="black"/><line x1="452.6" y1="240.0" x2="399.0" y2="240.0" stroke="black"/><line x1="399.0" y1="229.7" x2="399.0" y2="250.3" stroke="black"/></g>
<g><polyline points="274.2,240.0 274.2,42.6 301.0,42.6" fill="none" stroke="black" stroke-dasharray="3 2"/><line x1="301.0" y1="32.4" x2="301.0" y2="52.9" stroke="black" stroke-dasharray="3 2"/><polyline points="425.8,240.0 425.8,42.6 399.0,42.6" fill="none" stroke="black" stroke-dasharray="3 2"/><line x1="399.0" y1="32.4" x2="399.0" y2="52.9" stroke="black" stroke-dasharray="3 2"/></g>
<g transform="translate(8.0 120.0) scale(0.7) translate(-8.0 -120.0)"><image href="https://flagcdn.com/ma.svg" x="8.0" y="62.4" width="82.1" height="53.4" preserveAspectRatio="none"/><rect x="8.0" y="62.4" width="82.1" height="53.4" fill="none" stroke="black" stroke-width="0.5"/><text x="95.8" y="93.0" text-anchor="start" font-weight="700" font-size="11.4" textLength="21.7" lengthAdjust="spacingAndGlyphs">MAR 1</text><image href="https://flagcdn.com/ar.svg" x="8.0" y="124.3" width="82.1" height="53.4" preserveAspectRatio="none"/><rect x="8.0" y="124.3" width="82.1" height="53.4" fill="none" stroke="black" stroke-width="0.5"/><text x="95.8" y="154.9" text-anchor="start" font-weight="700" font-size="11.4" textLength="21.7" lengthAdjust="spacingAndGlyphs">ARG 3</text><text x="49.0" y="53.3" text-anchor="middle" font-size="14.1" font-weight="700">QUARTER</text></g>
<g transform="translate(8.0 360.0) scale(0.7) translate(-8.0 -360.0)"><image href="https://flagcdn.com/se.svg" x="8.0" y="302.4" width="82.1" height="53.4" preserveAspectRatio="none"/><rect x="8.0" y="302.4" width="82.1" height="53.4" fill="none" stroke="black" stroke-width="0.5"/><text x="95.8" y="333.0" text-anchor="start" font-weight="700" font-size="11.4" textLength="21.7" lengthAdjust="spacingAndGlyphs">SWE 3</text><image href="https://flagcdn.com/sn.svg" x="8.0" y="364.3" width="82.1" height="53.4" preserveAspectRatio="none"/><rect x="8.0" y="364.3" width="82.1" height="53.4" fill="none" stroke="black" stroke-width="0.5"/><text x="95.8" y="394.9" text-anchor="start" font-weight="700" font-size="11.4" textLength="21.7" lengthAdjust="spacingAndGlyphs">SEN 2</text><text x="49.0" y="293.3" text-anchor="middle" font-size="14.1" font-weight="700">QUARTER</text></g>
<g transform="translate(692.0 120.0) scale(0.7) translate(-692.0 -120.0)"><image href="https://flagcdn.com/nl.svg" x="609.9" y="62.4" width="82.1" height="53.4" preserveAspectRatio="none"/><rect x="609.9" y="62.4" width="82.1" height="53.4" fill="none" stroke="black" stroke-width="0.5"/><text x="604.2" y="93.0" text-anchor="end" font-weight="700" font-size="11.4" textLength="21.7" lengthAdjust="spacingAndGlyphs">NED 3</text><image href="https://flagcdn.com/us.svg" x="609.9" y="124.3" width="82.1" height="53.4" preserveAspectRatio="none"/><rect x="609.9" y="124.3" width="82.1" height="53.4" fill="none" stroke="black" stroke-width="0.5"/><text x="604.2" y="154.9" text-anchor="end" font-weight="700" font-size="11.4" textLength="21.7" lengthAdjust="spacingAndGlyphs">USA 1</text><text x="651.0" y="53.3" text-anchor="middle" font-size="14.1" font-weight="700">QUARTER</text></g>
<g transform="translate(692.0 360.0) scale(0.7) translate(-692.0 -360.0)"><image href="https://flagcdn.com/gh.svg" x="609.9" y="302.4" width="82.1" height="53.4" preserveAspectRatio="none"/><rect x="609.9" y="302.4" width="82.1" height="53.4" fill="none" stroke="black" stroke-width="0.5"/><text x="604.2" y="333.0" text-anchor="end" font-weight="700" font-size="11.4" textLength="21.7" lengthAdjust="spacingAndGlyphs">GHA 1</text><image href="https://flagcdn.com/eg.svg" x="609.9" y="364.3" width="82.1" height="53.4" preserveAspectRatio="none"/><rect x="609.9" y="364.3" width="82.1" height="53.4" fill="none" stroke="black" stroke-width="0.5"/><text x="604.2" y="394.9" text-anchor="end" font-weight="700" font-size="11.4" textLength="21.7" lengthAdjust="spacingAndGlyphs">EGY 0</text><text x="651.0" y="293.3" text-anchor="middle" font-size="14.1" font-weight="700">QUARTER</text></g>
<g transform="translate(150.5 240.0) scale(0.8) translate(-150.5 -240.0)"><image href="https://flagcdn.com/ar.svg" x="150.5" y="182.4" width="82.1" height="53.4" preserveAspectRatio="none"/><rect x="150.5" y="182.4" width="82.1" height="53.4" fill="none" stroke="black" stroke-width="0.5"/><text x="238.3" y="213.0" text-anchor="start" font-weight="700" font-size="11.4" textLength="21.7" lengthAdjust="spacingAndGlyphs">ARG 1</text><image href="https://flagcdn.com/se.svg" x="150.5" y="244.3" width="82.1" height="53.4" preserveAspectRatio="none"/><rect x="150.5" y="244.3" width="82.1" height="53.4" fill="none" stroke="black" stroke-width="0.5"/><text x="238.3" y="274.9" text-anchor="start" font-weight="700" font-size="11.4" textLength="21.7" lengthAdjust="spacingAndGlyphs">SWE 3</text><text x="191.5" y="173.3" text-anchor="middle" font-size="14.1" font-weight="700">SEMI</text></g>
<g transform="translate(549.5 240.0) scale(0.8) translate(-549.5 -240.0)"><image href="https://flagcdn.com/nl.svg" x="467.4" y="182.4" width="82.1" height="53.4" preserveAspectRatio="none"/><rect x="467.4" y="182.4" width="82.1" height="53.4" fill="none" stroke="black" stroke-width="0.5"/><text x="461.7" y="213.0" text-anchor="end" font-weight="700" font-size="11.4" textLength="21.7" lengthAdjust="spacingAndGlyphs">NED 3</text><image href="https://flagcdn.com/gh.svg" x="467.4" y="244.3" width="82.1" height="53.4" preserveAspectRatio="none"/><rect x="467.4" y="244.3" width="82.1" height="53.4" fill="none" stroke="black" stroke-width="0.5"/><text x="461.7" y="274.9" text-anchor="end" font-weight="700" font-size="11.4" textLength="21.7" lengthAdjust="spacingAndGlyphs">GHA 2</text><text x="508.5" y="173.3" text-anchor="middle" font-size="14.1" font-weight="700">SEMI</text></g>
<text x="350" y="335.0" text-anchor="middle" font-size="14.1" font-weight="700">FINAL</text><text x="350" y="178.3" text-anchor="middle" font-weight="700">SWE 1</text><image href="https://flagcdn.com/se.svg" x="309.0" y="182.4" width="82.1" height="53.4" preserveAspectRatio="none"/><rect x="309.0" y="182.4" width="82.1" height="53.4" fill="none" stroke="black" stroke-width="0.5"/><image href="https://flagcdn.com/nl.svg" x="309.0" y="244.3" width="82.1" height="53.4" preserveAspectRatio="none"/><rect x="309.0" y="244.3" width="82.1" height="53.4" fill="none" stroke="black" stroke-width="0.5"/><text x="350" y="318.8" text-anchor="middle" font-weight="700">NED 0</text>
<text x="350" y="-38.2" text-anchor="middle" font-size="14.1" font-weight="700">3RD PLACE</text><text x="350" y="-19.1" text-anchor="middle" font-weight="700">ARG 3</text><image href="https://flagcdn.com/ar.svg" x="309.0" y="-15.0" width="82.1" height="53.4" preserveAspectRatio="none"/><rect x="309.0" y="-15.0" width="82.1" height="53.4" fill="none" stroke="black" stroke-width="0.5"/><image href="https://flagcdn.com/gh.svg" x="309.0" y="46.9" width="82.1" height="53.4" preserveAspectRatio="none"/><rect x="309.0" y="46.9" width="82.1" height="53.4" fill="none" stroke="black" stroke-width="0.5"/><text x="350" y="121.5" text-anchor="middle" font-weight="700">GHA 1</text>
</g>
</svg>