<svg xmlns="http://www.w3.org/2000/svg" viewBox="0 0 700 480" font-family="Helvetica,Arial,sans-serif" font-size="39.1" fill="black">
<rect width="700" height="480" fill="white"/>
<g transform="translate(350.0 240.0) scale(0.889) translate(-350.0 -157.9)">
<g><line x1="174.1" y1="240.0" x2="266.0" y2="240.0" stroke="black"/><line x1="266.0" y1="222.4" x2="266.0" y2="257.6" stroke="black"/><line x1="525.9" y1="240.0" x2="434.0" y2="240.0" stroke="black"/><line x1="434.0" y1="222.4" x2="434.0" y2="257.6" stroke="black"/></g>
<g><polyline points="220.0,240.0 220.0,-17.1 308.0,-17.1" fill="none" stroke="black" stroke-dasharray="3 2"/><line x1="308.0" y1="-25.9" x2="308.0" y2="-8.3" stroke="black" stroke-dasharray="3 2"/><polyline points="480.0,240.0 480.0,-17.1 392.0,-17.1" fill="none" stroke="black" stroke-dasharray="3 2"/><line x1="392.0" y1="-25.9" x2="392.0" y2="-8.3" stroke="black" stroke-dasharray="3 2"/></g>
<g transform="translate(8.0 240.0) scale(0.8) translate(-8.0 -240.0)"><image href="https://flagcdn.com/ar.svg" x="8.0" y="141.2" width="140.7" height="91.5" preserveAspectRatio="none"/><rect x="8.0" y="141.2" width="140.7" height="91.5" fill="none" stroke="black" stroke-width="0.5"/><text x="158.5" y="193.8" text-anchor="start" font-weight="700" font-size="19.5" textLength="37.1" lengthAdjust="spacingAndGlyphs">ARG 1</text><image href="https://flagcdn.com/se.svg" x="8.0" y="247.3" width="140.7" height="91.5" preserveAspectRatio="none"/><rect x="8.0" y="247.3" width="140.7" height="91.5" fill="none" stroke="black" stroke-width="0.5"/><text x="158.5" y="299.9" text-anchor="start" font-weight="700" font-size="19.5" textLength="37.1" lengthAdjust="spacingAndGlyphs">SWE 3</text><text x="78.4" y="125.6" text-anchor="middle" font-size="24.2" font-weight="700">SEMI</text></g>
<g transform="translate(692.0 240.0) scale(0.8) translate(-692.0 -240.0)"><image href="https://flagcdn.com/nl.svg" x="551.3" y="141.2" width="140.7" height="91.5" preserveAspectRatio="none"/><rect x="551.3" y="141.2" width="140.7" height="91.5" fill="none" stroke="black" stroke-width="0.5"/><text x="541.5" y="193.8" text-anchor="end" font-weight="700" font-size="19.5" textLength="37.1" lengthAdjust="spacingAndGlyphs">NED 3</text><image href="https://flagcdn.com/gh.svg" x="551.3" y="247.3" width="140.7" height="91.5" preserveAspectRatio="none"/><rect x="551.3" y="247.3" width="140.7" height="91.5" fill="none" stroke="black" stroke-width="0.5"/><text x="541.5" y="299.9" text-anchor="end" font-weight="700" font-size="19.5" textLength="37.1" lengthAdjust="spacingAndGlyphs">GHA 2</text><text x="621.6" y="125.6" text-anchor="middle" font-size="24.2" font-weight="700">SEMI</text></g>
<text x="350" y="401.4" text-anchor="middle" font-size="24.2" font-weight="700">FINAL</text><text x="350" y="134.2" text-anchor="middle" font-weight="700">SWE 1</text><image href="https://flagcdn.com/se.svg" x="279.6" y="141.2" width="140.7" height="91.5" preserveAspectRatio="none"/><rect x="279.6" y="141.2" width="140.7" height="91.5" fill="none" stroke="black" stroke-width="0.5"/><image href="https://flagcdn.com/nl.svg" x="279.6" y="247.3" width="140.7" height="91.5" preserveAspectRatio="none"/><rect x="279.6" y="247.3" width="140.7" height="91.5" fill="none" stroke="black" stroke-width="0.5"/><text x="350" y="375.1" text-anchor="middle" font-weight="700">NED 0</text>
<g transform="translate(350.0 -17.1) scale(0.5) translate(-350.0 17.1)"><text x="350" y="-154.2" text-anchor="middle" font-size="24.2" font-weight="700">3RD PLACE</text><text x="350" y="-122.9" text-anchor="middle" font-weight="700">ARG 3</text><image href="https://flagcdn.com/ar.svg" x="279.6" y="-115.8" width="140.7" height="91.5" preserveAspectRatio="none"/><rect x="279.6" y="-115.8" width="140.7" height="91.5" fill="none" stroke="black" stroke-width="0.5"/><image href="https://flagcdn.com/gh.svg" x="279.6" y="-9.8" width="140.7" height="91.5" preserveAspectRatio="none"/><rect x="279.6" y="-9.8" width="140.7" height="91.5" fill="none" stroke="black" stroke-width="0.5"/><text x="350" y="118.1" text-anchor="middle" font-weight="700">GHA 1</text></g>
</g>
</svg>